<svg width="512" height="512" viewBox="0 0 512 512" fill="none" xmlns="http://www.w3.org/2000/svg">
  <defs>
    <linearGradient id="logo-gradient" x1="0" y1="0" x2="512" y2="512" gradientUnits="userSpaceOnUse">
      <stop offset="0" stop-color="#8A63FF"/>
      <stop offset="1" stop-color="#5A4BFF"/>
    </linearGradient>
  </defs>
  <circle cx="256" cy="256" r="240" fill="url(#logo-gradient)" />
  <path d="M256 32C162.56 32 88 106.56 88 200C88 281.536 143.232 348.992 220.16 366.72C247.36 372.864 269.12 396.16 269.12 424C269.12 424.448 269.12 424.896 269.12 425.344C269.12 461.12 240.832 489.408 205.056 489.408C204.16 489.408 203.264 489.408 202.368 489.408C115.136 480.512 48 408.832 48 320C48 206.08 138.08 116 252 116H256Z" fill="white"/>
  <path d="M256 480C349.44 480 424 405.44 424 312C424 230.464 368.768 163.008 291.84 145.28C264.64 139.136 242.88 115.84 242.88 88C242.88 87.552 242.88 87.104 242.88 86.656C242.88 50.88 271.168 22.592 306.944 22.592C307.84 22.592 308.736 22.592 309.632 22.592C396.864 31.488 464 103.168 464 192C464 305.92 373.92 396 260 396H256Z" fill="white"/>
  <circle cx="206" cy="166" r="36" fill="white"/>
  <circle cx="306" cy="346" r="36" fill="url(#logo-gradient)"/>
</svg>
